<svg width="26" height="24" viewBox="0 0 26 24" fill="none" xmlns="http://www.w3.org/2000/svg">
<path d="M12.7645 23.648C4.48274 23.648 0 18.772 0 12.477C0 5.74999 5.04772 0.35199 14.0726 0.35199C20.6594 0.35199 25.44 4.38999 25.44 9.95299C25.44 18.665 14.4902 20.965 15.0393 15.995C14.2867 17.103 13.074 18.349 10.7431 18.349C8.07614 18.349 6.4183 16.507 6.4183 13.542C6.4183 9.09799 9.51456 5.34299 13.18 5.34299C14.9386 5.34299 16.148 6.21899 16.6537 7.56399L17.1455 5.93199H19.6238C19.3651 6.76399 17.1635 14.459 17.1635 14.459C16.4766 17.125 18.5945 17.172 20.4728 15.756C24.0016 13.176 24.1839 6.42899 19.415 3.61499C14.3047 0.72399 2.67226 2.51299 2.67226 12.308C2.67226 17.919 6.85926 21.689 13.091 21.689C16.7332 21.689 18.9655 20.759 20.8237 19.741L22.0713 21.439C20.2577 22.405 17.3427 23.648 12.7645 23.648ZM10.2799 9.34299C9.52198 10.683 9.03226 12.419 9.03226 13.767C9.03226 17.377 12.7656 17.4 14.5994 14.006C15.3541 12.612 15.8406 10.835 15.8406 9.47699C15.8406 6.55999 12.1359 6.04299 10.2799 9.34299V9.34299Z" fill="#301100"/>
</svg>
