<svg width="33" height="33" viewBox="0 0 33 33" fill="none" xmlns="http://www.w3.org/2000/svg">
<path d="M15 2.75C19.3945 2.75 23.25 6.34975 23.25 10.4528C23.25 14.7056 19.8221 20.2593 15 27.8616C10.1779 20.2593 6.75 14.7056 6.75 10.4528C6.75 6.34975 10.6055 2.75 15 2.75V2.75ZM15 0C9.22775 0 4 4.67913 4 10.4528C4 16.225 8.76987 23.1165 15 33C21.2301 23.1165 26 16.225 26 10.4528C26 4.67913 20.7736 0 15 0V0ZM15 15.125C12.7216 15.125 10.875 13.2784 10.875 11C10.875 8.72163 12.7216 6.875 15 6.875C17.2784 6.875 19.125 8.72163 19.125 11C19.125 13.2784 17.2784 15.125 15 15.125Z" fill="#301100"/>
</svg>
