<svg width="26" height="24" viewBox="0 0 26 24" fill="none" xmlns="http://www.w3.org/2000/svg">
<path fill-rule="evenodd" clip-rule="evenodd" d="M12.72 0C5.69538 0 0 5.372 0 12C0 17.084 3.35278 21.426 8.08462 23.174C7.97332 22.225 7.87262 20.769 8.12914 19.733C8.36022 18.796 9.62056 13.768 9.62056 13.768C9.62056 13.768 9.24002 13.049 9.24002 11.986C9.24002 10.318 10.265 9.072 11.5413 9.072C12.6257 9.072 13.1504 9.841 13.1504 10.762C13.1504 11.791 12.4561 13.33 12.0967 14.757C11.7967 15.951 12.7317 16.926 13.9803 16.926C16.2413 16.926 17.9787 14.677 17.9787 11.431C17.9787 8.558 15.7908 6.549 12.6659 6.549C9.0471 6.549 6.92286 9.11 6.92286 11.756C6.92286 12.787 7.34368 13.894 7.86944 14.494C7.97332 14.613 7.98816 14.718 7.95742 14.839L7.60444 16.199C7.54826 16.419 7.42 16.466 7.17832 16.36C5.58938 15.662 4.59616 13.471 4.59616 11.711C4.59616 7.926 7.51116 4.449 13.0009 4.449C17.4137 4.449 20.8428 7.416 20.8428 11.38C20.8428 15.516 18.0794 18.844 14.2422 18.844C12.9532 18.844 11.7416 18.213 11.3272 17.466L10.5343 20.319C10.247 21.362 9.47216 22.669 8.95276 23.465C10.1442 23.812 11.4088 24 12.72 24C19.7446 24 25.44 18.627 25.44 12C25.44 5.372 19.7446 0 12.72 0V0Z" fill="#301100"/>
</svg>
