<svg width="28" height="24" viewBox="0 0 28 24" fill="none" xmlns="http://www.w3.org/2000/svg">
<path d="M18.046 9.72L13.846 7.11C13.4729 6.8738 13.0474 6.74919 12.614 6.74919C12.1806 6.74919 11.7551 6.8738 11.382 7.11C11.006 7.3371 10.6943 7.66889 10.4799 8.07025C10.2655 8.47161 10.1563 8.92762 10.164 9.39V14.61C10.1563 15.0724 10.2655 15.5284 10.4799 15.9298C10.6943 16.3311 11.006 16.6629 11.382 16.89C11.7551 17.1262 12.1806 17.2508 12.614 17.2508C13.0474 17.2508 13.4729 17.1262 13.846 16.89L18.046 14.28C18.4051 14.0439 18.7016 13.7131 18.9073 13.3192C19.1131 12.9252 19.2211 12.4814 19.2211 12.03C19.2211 11.5786 19.1131 11.1348 18.9073 10.7408C18.7016 10.3469 18.4051 10.0161 18.046 9.78V9.72ZM12.936 13.98V10.02L16.128 12L12.936 13.98ZM23.8 0H4.2C3.08609 0 2.0178 0.474106 1.23015 1.31802C0.442499 2.16193 0 3.30653 0 4.5V19.5C0 20.6935 0.442499 21.8381 1.23015 22.682C2.0178 23.5259 3.08609 24 4.2 24H23.8C24.9139 24 25.9822 23.5259 26.7698 22.682C27.5575 21.8381 28 20.6935 28 19.5V4.5C28 3.30653 27.5575 2.16193 26.7698 1.31802C25.9822 0.474106 24.9139 0 23.8 0V0ZM25.2 19.5C25.2 19.8978 25.0525 20.2794 24.79 20.5607C24.5274 20.842 24.1713 21 23.8 21H4.2C3.8287 21 3.4726 20.842 3.21005 20.5607C2.9475 20.2794 2.8 19.8978 2.8 19.5V4.5C2.8 4.10218 2.9475 3.72064 3.21005 3.43934C3.4726 3.15804 3.8287 3 4.2 3H23.8C24.1713 3 24.5274 3.15804 24.79 3.43934C25.0525 3.72064 25.2 4.10218 25.2 4.5V19.5Z" fill="#301100"/>
</svg>
