<svg width="21" height="20" viewBox="0 0 21 20" fill="none" xmlns="http://www.w3.org/2000/svg">
<path d="M10.475 19.7067C3.96417 19.7067 0.440002 15.6433 0.440002 10.3975C0.440002 4.79167 4.40834 0.293335 11.5033 0.293335C16.6817 0.293335 20.44 3.65833 20.44 8.29417C20.44 15.5542 11.8317 17.4708 12.2633 13.3292C11.6717 14.2525 10.7183 15.2908 8.88584 15.2908C6.78917 15.2908 5.48584 13.7558 5.48584 11.285C5.48584 7.58167 7.92 4.4525 10.8017 4.4525C12.1842 4.4525 13.135 5.1825 13.5325 6.30333L13.9192 4.94333H15.8675C15.6642 5.63667 13.9333 12.0492 13.9333 12.0492C13.3933 14.2708 15.0583 14.31 16.535 13.13C19.3092 10.98 19.4525 5.3575 15.7033 3.0125C11.6858 0.603335 2.54084 2.09417 2.54084 10.2567C2.54084 14.9325 5.8325 18.0742 10.7317 18.0742C13.595 18.0742 15.35 17.2992 16.8108 16.4508L17.7917 17.8658C16.3658 18.6708 14.0742 19.7067 10.475 19.7067ZM8.52167 7.78583C7.92584 8.9025 7.54084 10.3492 7.54084 11.4725C7.54084 14.4808 10.4758 14.5 11.9175 11.6717C12.5108 10.51 12.8933 9.02917 12.8933 7.8975C12.8933 5.46667 9.98084 5.03584 8.52167 7.78583Z" fill="#301100"/>
</svg>
