<svg width="15" height="24" viewBox="0 0 15 24" fill="none" xmlns="http://www.w3.org/2000/svg">
<path d="M7.5 2.41667C10.4963 2.41667 13.125 4.92558 13.125 7.78525C13.125 10.7494 10.7878 14.6201 7.5 19.9187C4.21219 14.6201 1.875 10.7494 1.875 7.78525C1.875 4.92558 4.50375 2.41667 7.5 2.41667ZM7.5 0.5C3.56437 0.5 0 3.76121 0 7.78525C0 11.8083 3.25219 16.6115 7.5 23.5C11.7478 16.6115 15 11.8083 15 7.78525C15 3.76121 11.4366 0.5 7.5 0.5V0.5ZM7.5 11.0417C5.94656 11.0417 4.6875 9.75462 4.6875 8.16667C4.6875 6.57871 5.94656 5.29167 7.5 5.29167C9.05344 5.29167 10.3125 6.57871 10.3125 8.16667C10.3125 9.75462 9.05344 11.0417 7.5 11.0417Z" fill="#301100"/>
</svg>
