<svg width="24" height="20" viewBox="0 0 24 20" fill="none" xmlns="http://www.w3.org/2000/svg">
<path d="M11.6059 6.35082L11.6059 6.35083L11.6094 6.35296L14.968 8.38209V8.42379L15.1987 8.57126C15.4331 8.72113 15.629 8.93262 15.7658 9.18732C15.9027 9.44212 15.9752 9.7306 15.9752 10.025C15.9752 10.3194 15.9027 10.6079 15.7658 10.8627C15.63 11.1156 15.4359 11.3259 15.2036 11.4755L11.6094 13.647L11.6094 13.647L11.6059 13.6492C11.364 13.7981 11.0899 13.8757 10.812 13.8757C10.5341 13.8757 10.26 13.7981 10.0181 13.6492L10.0181 13.6491L10.0092 13.6438C9.76631 13.5012 9.56232 13.2913 9.42097 13.034C9.27955 12.7766 9.20682 12.4827 9.21193 12.1835L9.212 12.1835V12.175V7.825H9.21207L9.21193 7.81647C9.20682 7.51732 9.27955 7.22336 9.42097 6.96599C9.56232 6.70874 9.76631 6.49878 10.0092 6.35616L10.0092 6.35625L10.0181 6.35082C10.26 6.20192 10.5341 6.12433 10.812 6.12433C11.0899 6.12433 11.364 6.20192 11.6059 6.35082ZM10.588 11.65V12.5354L11.3462 12.0782L14.0822 10.4282L14.7922 10L14.0822 9.57183L11.3462 7.92183L10.588 7.46458V8.35V11.65ZM3.6 0.5H20.4C21.2154 0.5 22.0018 0.837237 22.5849 1.44462C23.1686 2.05269 23.5 2.88161 23.5 3.75V16.25C23.5 17.1184 23.1686 17.9473 22.5849 18.5554C22.0018 19.1628 21.2154 19.5 20.4 19.5H3.6C2.78457 19.5 1.99819 19.1628 1.41511 18.5554C0.831359 17.9473 0.5 17.1184 0.5 16.25V3.75C0.5 2.88161 0.831359 2.05269 1.41511 1.44462C1.99819 0.837237 2.78457 0.5 3.6 0.5ZM21.6092 17.4802C21.9256 17.1505 22.1 16.7077 22.1 16.25V3.75C22.1 3.29231 21.9256 2.84946 21.6092 2.51985C21.2921 2.18955 20.8576 2 20.4 2H3.6C3.14239 2 2.70787 2.18955 2.39078 2.51985C2.07435 2.84946 1.9 3.29231 1.9 3.75V16.25C1.9 16.7077 2.07435 17.1505 2.39078 17.4802C2.70787 17.8105 3.14239 18 3.6 18H20.4C20.8576 18 21.2921 17.8105 21.6092 17.4802Z" fill="#301100" stroke="#301100"/>
</svg>
