<svg width="155" height="52" viewBox="0 0 155 52" fill="none" xmlns="http://www.w3.org/2000/svg">
<path d="M72.941 1.775C73.9457 1.775 74.7963 1.91433 75.493 2.193C76.197 2.46433 76.7323 2.886 77.099 3.458C77.473 4.03 77.66 4.756 77.66 5.636C77.66 6.472 77.4877 7.17233 77.143 7.737C76.8057 8.29433 76.3693 8.71967 75.834 9.013C75.306 9.299 74.756 9.45667 74.184 9.486C74.8073 9.50067 75.4123 9.64367 75.999 9.915C76.5857 10.179 77.066 10.6043 77.44 11.191C77.8213 11.7703 78.012 12.544 78.012 13.512C78.012 14.458 77.8213 15.2683 77.44 15.943C77.066 16.6103 76.4977 17.12 75.735 17.472C74.9723 17.824 74.0117 18 72.853 18H67.551V1.775H72.941ZM69.366 9.365L68.728 8.727H72.061C73.2343 8.727 74.1473 8.49233 74.8 8.023C75.4527 7.54633 75.779 6.846 75.779 5.922C75.779 5.306 75.6433 4.81833 75.372 4.459C75.1007 4.09233 74.7157 3.82833 74.217 3.667C73.7257 3.50567 73.15 3.425 72.49 3.425H68.519L69.366 2.358V9.365ZM72.49 16.35C73.6047 16.35 74.4847 16.1043 75.13 15.613C75.7753 15.1217 76.098 14.3883 76.098 13.413C76.098 12.819 75.9917 12.3277 75.779 11.939C75.5663 11.543 75.2767 11.2313 74.91 11.004C74.5433 10.7767 74.1217 10.6153 73.645 10.52C73.1757 10.4173 72.6807 10.366 72.16 10.366H68.728L69.366 9.728V17.417L68.519 16.35H72.49ZM81.9483 3.425L82.7953 2.358V9.684L82.3333 9.035H88.5593V10.685H82.3333L82.7953 10.036V17.417L81.9483 16.35H89.7803V18H80.9143V1.775H89.7803V3.425H81.9483ZM91.6295 18L96.0955 1.731H99.0215L103.454 18H101.518L97.5475 2.952H97.5695L93.5655 18H91.6295ZM93.9395 13.699V12.049H101.177V13.699H93.9395ZM116.528 12.016C116.528 14.1207 116.037 15.6827 115.054 16.702C114.071 17.714 112.704 18.22 110.951 18.22C109.206 18.22 107.842 17.714 106.859 16.702C105.876 15.6827 105.385 14.1207 105.385 12.016C105.385 11.6933 105.385 11.3523 105.385 10.993C105.385 10.6263 105.385 10.2413 105.385 9.838V1.775H107.266V10.003C107.266 10.3843 107.266 10.74 107.266 11.07C107.266 11.4 107.266 11.7043 107.266 11.983C107.266 13.611 107.578 14.777 108.201 15.481C108.824 16.1777 109.741 16.526 110.951 16.526C112.168 16.526 113.089 16.1777 113.712 15.481C114.343 14.777 114.658 13.611 114.658 11.983V1.775H116.528V12.016ZM129.309 3.425H124.623L125.052 2.358V18H123.182V2.358L123.71 3.425H118.936V1.775H129.309V3.425ZM141.977 1.775L137.434 12.357V18H135.553V12.357L131.032 1.775H133.012L136.895 11.18H136.103L139.975 1.775H141.977ZM72.457 42.22C71.335 42.22 70.3743 42.044 69.575 41.692C68.783 41.3327 68.1743 40.7937 67.749 40.075C67.3237 39.3563 67.111 38.4617 67.111 37.391C67.111 37.2443 67.111 37.1197 67.111 37.017C67.111 36.9143 67.111 36.7897 67.111 36.643H68.992C68.992 36.7823 68.992 36.8997 68.992 36.995C68.992 37.0903 68.992 37.2113 68.992 37.358C68.992 38.48 69.2853 39.2903 69.872 39.789C70.4587 40.2803 71.313 40.526 72.435 40.526C73.5937 40.526 74.47 40.328 75.064 39.932C75.658 39.536 75.955 38.8943 75.955 38.007C75.955 37.3837 75.7827 36.8667 75.438 36.456C75.1007 36.038 74.6313 35.686 74.03 35.4C73.4287 35.1067 72.7283 34.839 71.929 34.597C71.027 34.3183 70.2203 33.9663 69.509 33.541C68.805 33.1157 68.2477 32.5913 67.837 31.968C67.4337 31.3373 67.232 30.571 67.232 29.669C67.232 28.789 67.4447 28.0447 67.87 27.436C68.3027 26.8273 68.904 26.3653 69.674 26.05C70.444 25.7347 71.3387 25.577 72.358 25.577C73.436 25.577 74.371 25.7457 75.163 26.083C75.9623 26.413 76.5783 26.919 77.011 27.601C77.451 28.2757 77.671 29.1263 77.671 30.153C77.671 30.3143 77.671 30.4537 77.671 30.571C77.671 30.681 77.671 30.8167 77.671 30.978H75.79C75.79 30.8387 75.79 30.714 75.79 30.604C75.79 30.494 75.79 30.3693 75.79 30.23C75.79 29.1593 75.5003 28.4003 74.921 27.953C74.3417 27.4983 73.4983 27.271 72.391 27.271C71.3277 27.271 70.5063 27.458 69.927 27.832C69.3477 28.206 69.058 28.8183 69.058 29.669C69.058 30.307 69.234 30.835 69.586 31.253C69.9453 31.6637 70.433 32.0157 71.049 32.309C71.665 32.595 72.369 32.87 73.161 33.134C74.1217 33.4493 74.9467 33.8087 75.636 34.212C76.3327 34.608 76.8643 35.103 77.231 35.697C77.605 36.291 77.792 37.039 77.792 37.941C77.792 38.843 77.5757 39.613 77.143 40.251C76.7177 40.889 76.1053 41.3767 75.306 41.714C74.514 42.0513 73.5643 42.22 72.457 42.22ZM90.1431 27.425H85.4571L85.8861 26.358V42H84.0161V26.358L84.5441 27.425H79.7701V25.775H90.1431V27.425ZM102.811 25.775L98.2678 36.357V42H96.3868V36.357L91.8658 25.775H93.8458L97.7288 35.18H96.9368L100.809 25.775H102.811ZM104.934 42V25.775H106.815V41.417L105.968 40.35H113.217V42H104.934ZM116.753 27.425L117.6 26.358V33.684L117.138 33.035H123.364V34.685H117.138L117.6 34.036V41.417L116.753 40.35H124.585V42H115.719V25.775H124.585V27.425H116.753Z" fill="#301100"/>
<path d="M60 0V47" stroke="#301100"/>
<path d="M14.8285 4.3375C16.9748 4.3375 18.7922 4.63517 20.2805 5.2305C21.7845 5.81016 22.9282 6.711 23.7115 7.933C24.5105 9.155 24.91 10.706 24.91 12.586C24.91 14.372 24.5418 15.8682 23.8055 17.0745C23.0848 18.2652 22.1527 19.1738 21.009 19.8005C19.881 20.4115 18.706 20.7483 17.484 20.811C18.8157 20.8423 20.1082 21.1478 21.3615 21.7275C22.6148 22.2915 23.641 23.2002 24.44 24.4535C25.2547 25.6912 25.662 27.344 25.662 29.412C25.662 31.433 25.2547 33.1642 24.44 34.6055C23.641 36.0312 22.4268 37.12 20.7975 37.872C19.1682 38.624 17.1158 39 14.6405 39H3.3135V4.3375H14.8285ZM7.191 20.5525L5.828 19.1895H12.9485C15.4552 19.1895 17.4057 18.6882 18.8 17.6855C20.1943 16.6672 20.8915 15.171 20.8915 13.197C20.8915 11.881 20.6017 10.8392 20.022 10.0715C19.4423 9.28817 18.6198 8.72417 17.5545 8.3795C16.5048 8.03483 15.275 7.8625 13.865 7.8625H5.3815L7.191 5.583V20.5525ZM13.865 35.475C16.2463 35.475 18.1263 34.9502 19.505 33.9005C20.8837 32.8508 21.573 31.2842 21.573 29.2005C21.573 27.9315 21.3458 26.8818 20.8915 26.0515C20.4372 25.2055 19.8183 24.5397 19.035 24.054C18.2517 23.5683 17.3508 23.2237 16.3325 23.02C15.3298 22.8007 14.2723 22.691 13.16 22.691H5.828L7.191 21.328V37.7545L5.3815 35.475H13.865ZM42.3433 39.47C39.9463 39.47 37.894 39.094 36.1863 38.342C34.4943 37.5743 33.194 36.4228 32.2853 34.8875C31.3767 33.3522 30.9223 31.4408 30.9223 29.1535C30.9223 28.8402 30.9223 28.5738 30.9223 28.3545C30.9223 28.1352 30.9223 27.8688 30.9223 27.5555H34.9408C34.9408 27.8532 34.9408 28.1038 34.9408 28.3075C34.9408 28.5112 34.9408 28.7697 34.9408 29.083C34.9408 31.48 35.5675 33.2112 36.8208 34.2765C38.0742 35.3262 39.8993 35.851 42.2963 35.851C44.7717 35.851 46.6438 35.428 47.9128 34.582C49.1818 33.736 49.8163 32.3652 49.8163 30.4695C49.8163 29.1378 49.4482 28.0333 48.7118 27.156C47.9912 26.263 46.9885 25.511 45.7038 24.9C44.4192 24.2733 42.923 23.7015 41.2153 23.1845C39.2883 22.5892 37.565 21.8372 36.0453 20.9285C34.5413 20.0198 33.3507 18.8997 32.4733 17.568C31.6117 16.2207 31.1808 14.5835 31.1808 12.6565C31.1808 10.7765 31.6352 9.18633 32.5438 7.886C33.4682 6.58566 34.7528 5.59867 36.3978 4.925C38.0428 4.25133 39.9542 3.9145 42.1318 3.9145C44.4348 3.9145 46.4323 4.27483 48.1243 4.9955C49.832 5.7005 51.148 6.7815 52.0723 8.2385C53.0123 9.67983 53.4823 11.4972 53.4823 13.6905C53.4823 14.0352 53.4823 14.3328 53.4823 14.5835C53.4823 14.8185 53.4823 15.1083 53.4823 15.453H49.4638C49.4638 15.1553 49.4638 14.889 49.4638 14.654C49.4638 14.419 49.4638 14.1527 49.4638 13.855C49.4638 11.5677 48.845 9.94616 47.6073 8.9905C46.3697 8.01916 44.568 7.5335 42.2023 7.5335C39.9307 7.5335 38.176 7.933 36.9383 8.732C35.7007 9.531 35.0818 10.8392 35.0818 12.6565C35.0818 14.0195 35.4578 15.1475 36.2098 16.0405C36.9775 16.9178 38.0193 17.6698 39.3353 18.2965C40.6513 18.9075 42.1553 19.495 43.8473 20.059C45.8997 20.7327 47.6622 21.5003 49.1348 22.362C50.6232 23.208 51.759 24.2655 52.5423 25.5345C53.3413 26.8035 53.7408 28.4015 53.7408 30.3285C53.7408 32.2555 53.2787 33.9005 52.3543 35.2635C51.4457 36.6265 50.1375 37.6683 48.4298 38.389C46.7378 39.1097 44.709 39.47 42.3433 39.47Z" fill="#301100"/>
</svg>
